<?xml version="1.0" encoding="UTF-8" standalone="no"?><!DOCTYPE svg PUBLIC "-//W3C//DTD SVG 1.1//EN" "http://www.w3.org/Graphics/SVG/1.1/DTD/svg11.dtd"><svg width="100%" height="100%" viewBox="0 0 14200 6250" version="1.1" xmlns="http://www.w3.org/2000/svg" xmlns:xlink="http://www.w3.org/1999/xlink" xml:space="preserve" xmlns:serif="http://www.serif.com/" style="fill-rule:evenodd;clip-rule:evenodd;stroke-linecap:round;stroke-linejoin:round;stroke-miterlimit:1.5;"><path d="M1971.02,22.239l2.853,1314.33l-219.571,-201.251l216.718,-1113.08Z" style="fill:#fff;stroke:#000;stroke-width:29.9px;"/><path d="M1974.76,2660.44l2.732,-1325.51l205.606,230.113l-208.338,1095.39Z" style="fill:#fff;stroke:#000;stroke-width:29.9px;"/><path d="M1978.27,2669.75l-2.732,-1325.51l-205.606,230.114l208.338,1095.39Z" style="stroke:#000;stroke-width:29.9px;"/><path d="M3304.81,1345.94l-1325.51,2.733l204.975,218.64l1120.53,-221.373Z" style="fill:#1d0808;stroke:#000;stroke-width:29.9px;"/><path d="M3294.72,1336.74l-1325.51,-2.733l204.975,-218.64l1120.53,221.373Z" style="fill:#fff;stroke:#000;stroke-width:29.9px;"/><path d="M656.527,1340.48l1325.51,2.733l-211.492,206.537l-1114.01,-209.27Z" style="fill:#fff;stroke:#000;stroke-width:29.9px;"/><path d="M1969.06,14.952l0.871,1324.58l200.95,-223.596l-201.821,-1100.98Z" style="stroke:#000;stroke-width:29.9px;"/><path id="Compass" d="M646.447,1342.2l1325.51,-2.733l-217.079,-205.606l-1108.43,208.339Z" style="stroke:#000;stroke-width:29.9px;"/><path d="M1967.17,475.839c482.306,0 873.877,391.572 873.877,873.877c-0,482.306 -391.571,873.877 -873.877,873.877c-482.306,0 -873.877,-391.571 -873.877,-873.877c-0,-482.305 391.571,-873.877 873.877,-873.877Zm18.448,191.31c373.325,0 676.417,303.093 676.417,676.418c0,373.325 -303.092,676.418 -676.417,676.418c-373.325,-0 -676.418,-303.093 -676.418,-676.418c-0,-373.325 303.093,-676.418 676.418,-676.418Z" style="stroke:#000;stroke-width:29.9px;"/><path d="M3374.23,3821.84c16.13,-264.437 165.372,-334.643 165.372,-334.643c0,-0 -144.673,-130.414 -164.913,-289.337c-1.211,-9.511 349.297,-38.222 504.83,-41.758c0,0 6915.14,26.629 8504.96,-2.451c381.443,-6.978 1269.9,342.551 1269.9,342.551c-0,-0 -874.976,373.043 -1312.45,371.868c-1593.06,-4.28 -6932.53,11.719 -8427.15,4.014c-180.959,-0.933 -541.059,-41.962 -540.553,-50.244Z" style="fill:#e0e0e0;stroke:#000;stroke-width:47.53px;stroke-linecap:square;"/><path d="M2953.97,3229.61c-0,0 -2082.57,15.597 -2135.05,-8.341c-289.117,-131.85 -522.41,-167.293 -655.379,-122.395c-132.968,44.899 -120.445,258.584 -138.865,402.49c-18.05,141.017 -29.677,370.319 103.27,425.265c139.634,57.709 292.917,44.141 690.974,-166.577c7.825,-4.143 2153.09,24.45 2153.09,24.45c0,-0 168.123,-180.47 162.846,-280.176c-5.277,-99.705 -180.883,-274.716 -180.883,-274.716Z" style="fill:#b1afcb;stroke:#000;stroke-width:27.68px;"/><path d="M1045.52,3763.08l-166.358,-544.203" style="fill:none;stroke:#000;stroke-width:27.68px;"/><path d="M1767.39,3778.7l-166.358,-559.828" style="fill:none;stroke:#000;stroke-width:27.68px;"/><path d="M3442.61,2046.55l356.875,318.199c-0,0 -356.918,358.872 -413.753,542.261c-115.127,371.478 154.723,580.202 154.723,580.202c0,-0 -281.035,131.802 -113.338,656.378c59.643,186.57 355.099,493.714 355.099,493.714l-338.465,286.66c-287.624,-340.327 -447.263,-734.214 -455.397,-1123.86c-0,-0 153.892,-206.468 148.835,-306.311c-5.058,-99.842 -179.18,-292.743 -179.18,-292.743c24.85,-459.671 163.844,-870.177 484.601,-1154.5Z" style="stroke:#000;stroke-width:21.27px;"/><path d="M13646.7,3495.02l-9356.81,6.003" style="fill:none;stroke:#000;stroke-width:21.27px;"/><path d="M4174.45,3157.43l115.457,343.594l-119.226,370.837" style="fill:none;stroke:#000;stroke-width:27.68px;"/><path d="M1948.64,3778.7l-166.358,-559.828" style="fill:none;stroke:#000;stroke-width:27.68px;"/><path d="M2342.39,3778.7l-166.358,-559.828" style="fill:none;stroke:#000;stroke-width:27.68px;"/><path d="M2758.27,3278.71l135.783,449.779" style="fill:none;stroke:#000;stroke-width:27.68px;"/><path d="M2717.34,3798.51l-170.073,-573.449" style="fill:none;stroke:#000;stroke-width:27.68px;"/><path d="M2535.49,3793.56l-167.597,-563.543" style="fill:none;stroke:#000;stroke-width:27.68px;"/><path d="M1538.68,3774.99l-162.643,-556.113" style="fill:none;stroke:#000;stroke-width:27.68px;"/><path d="M1391.21,3771.27l-158.928,-544.968" style="fill:none;stroke:#000;stroke-width:27.68px;"/><path d="M2136.14,3778.7l-166.358,-559.828" style="fill:none;stroke:#000;stroke-width:27.68px;"/><path d="M1204.89,3766.2l-160.166,-537.538" style="fill:none;stroke:#000;stroke-width:27.68px;"/><path d="M833.07,3753.43c-83.291,-179.179 -85.123,-354.963 -9.906,-527.537" style="fill:#b1afcb;stroke:#000;stroke-width:47.53px;stroke-linecap:square;"/><path d="M763.651,3497.57l-739.098,-3.454" style="fill:none;stroke:#000;stroke-width:27.68px;"/><path d="M10733.9,439.956l652.609,7.502c-0,-0 892.818,0.257 882.165,471.797c-7.354,325.55 -460.86,506.544 -460.86,506.544c939.503,1096.01 1625.88,1758.78 2390.39,1729.27c0,0 -634.681,55.87 -1272.55,-226.847c-498.774,-221.067 -1613.44,-1476.06 -1613.44,-1476.06c0,0 476.675,-18.212 479.127,-514.753c1.337,-270.717 -242.76,-398.551 -468.276,-395.236c0,0 -157.227,743.856 -146.242,1045.13c9.613,263.659 -0.371,600.878 198.09,753.167l-690.522,9.858c14.425,-18.271 118.468,-209.42 139.941,-321.943c80.423,-421.439 101.784,-1225.91 52.148,-1413.27c-19.28,-72.775 -142.573,-175.167 -142.573,-175.167Z" style="fill:#130000;stroke:#fff;stroke-width:3.05px;"/><path d="M9784.28,575.333c0,-0 -189.757,-80.997 -727.349,166.418c-546.748,251.629 -603.23,839.498 -521.858,1143.32c120.914,451.466 704.04,649.587 1156.53,376.002c190.188,-114.992 463.079,-380.007 463.079,-380.007l56.535,472.48l535.152,8.494c-44.535,-55.621 -125.621,-113.24 -160.727,-247.777c-73.716,-282.506 -77.863,-739.027 -49.75,-1069.41c18.537,-217.833 95.597,-395.632 168.005,-492.142c-149.72,84.307 -309.977,115.927 -476.364,116.896l-27.439,129.176l-88.589,6.522l-327.222,-229.976Zm-629.328,234.97c-251.801,148.193 -402.37,607.836 -154.465,972.927c242.633,357.327 620.581,420.454 841.59,278.768c212.438,-136.192 276.375,-587.414 113.311,-960.136c-143.567,-328.158 -561.868,-431.964 -800.436,-291.559Z" style="fill:#130000;stroke:#fff;stroke-width:3.05px;"/><path d="M4069.91,651.762c-25.714,-211.781 -309.251,-210.424 -309.251,-210.424l1405.82,2.15c-0,-0 654.601,63.889 686.323,565.264c51.376,812.005 -1340.22,752.863 -1340.22,752.863l17.709,746.217l-460.457,183.49c0,0 1.112,-2031.09 0.084,-2039.56Zm440.948,10.445l2.474,969.774c360.978,45.287 592.37,20.453 730.055,-74.732c105.348,-72.83 222.134,-190.101 204.268,-339.073c-53.802,-448.63 -305.8,-552.813 -936.797,-555.969Z" style="fill:#130000;stroke:#fff;stroke-width:3.05px;"/><path d="M7520.23,449.876l685.58,1.579c0,-0 -134.642,2031.11 -100.718,2137.68c3.2,10.056 745.837,137.353 1040.55,147.715c230.8,8.116 708.955,-66.789 708.955,-66.789c-0,-0 -387.648,268.205 -841.852,267.42c-366.206,-0.633 -1328.53,-97.593 -1328.53,-97.593c-0,-0 95.069,-1822.57 117.132,-2209.43c3.982,-69.813 -281.112,-180.574 -281.112,-180.574Z" style="fill:#130000;stroke:#fff;stroke-width:3.05px;"/><path d="M6461.21,599.44c702.47,-386.07 1080.26,-5.676 1225.93,238.376c145.674,244.051 328.607,733.597 -351.889,1225.93c-630.583,456.224 -1273.23,209.998 -1418.9,-34.053c-145.674,-244.052 -371.267,-926.763 544.86,-1430.26Zm42.345,145.271c-251.802,148.193 -343.801,574.304 -154.465,972.927c4.862,10.236 9.831,20.225 14.904,29.972c212.475,408.236 605.677,390.482 826.685,248.796c212.438,-136.192 216.971,-570.441 53.907,-943.163c-143.567,-328.158 -502.464,-448.937 -741.031,-308.532Z" style="fill:#130000;stroke:#fff;stroke-width:3.05px;"/><g transform="matrix(833.333,0,0,833.333,12070.8,5784.61)"></g><text x="2183.1px" y="5784.61px" style="font-family:'BaskOldFace', 'Baskerville Old Face', serif;font-size:833.333px;">Where Fantasy Meets Reality</text></svg>